# xmcd CD database file
#
# Track frame offsets:
#	150
#	14868
#	28430
#	42913
#	56532
#	70532
#	86725
#	102768
#	117468
#	133508
#	147893
#	175929
#
# Disc length: 2556 seconds
#
# Revision: 2
# Processed by: cddbd v1.5.2PL0 Copyright (c) Steve Scherf et al.
# Submitted via: CDex 1.70beta2
#
DISCID=ab09fa0c
DTITLE=Midle of The Road - I grandi successi originali [CD1]
DYEAR=2000
DGENRE=Pop
TTITLE0=Pweedle dee Pweedle  dum
TTITLE1=Sacramento (a wonderful iown)
TTITLE2=Soley soley
TTITLE3=Chirpy chirpy cheep cheep
TTITLE4=Sanson and belilà
TTITLE5=Love sweet love
TTITLE6=I can't tell the Bottom from thetop
TTITLE7=The tlak of all the usa
TTITLE8=To remind me
TTITLE9=Happier phan i
TTITLE10=Ain't no mountain high enough
TTITLE11=Medicine wonan
EXTD=YEAR: 2000
EXTT0=
EXTT1=
EXTT2=
EXTT3=
EXTT4=
EXTT5=
EXTT6=
EXTT7=
EXTT8=
EXTT9=
EXTT10=
EXTT11=
PLAYORDER=
